<?xml version="1.0" encoding="UTF-8"?>
<svg width="62px" height="62px" viewBox="0 0 62 62" version="1.1" xmlns="http://www.w3.org/2000/svg" xmlns:xlink="http://www.w3.org/1999/xlink">
    <!-- Generator: Sketch 58 (84663) - https://sketch.com -->
    <title>Group 33</title>
    <desc>Created with Sketch.</desc>
    <defs>
        <circle id="path-1" cx="31.932271" cy="31" r="31"></circle>
    </defs>
    <g id="Page-1" stroke="none" stroke-width="1" fill="none" fill-rule="evenodd">
        <g id="Group-33" transform="translate(-0.932271, 0.000000)">
            <mask id="mask-2" fill="white">
                <use xlink:href="#path-1"></use>
            </mask>
            <use id="Mask" fill="#F1F1F1" xlink:href="#path-1"></use>
            <path d="M69.321063,169.259995 L-9.04797056,169.259995 L-9.04797056,70.467816 C-9.04797056,68.8605168 -8.32462976,67.3374576 -7.06215296,66.3423024 C-3.67121216,63.6702096 3.93285184,58.6551216 14.7256806,57.1837296 C29.6698566,55.1462448 61.7641734,59.9007504 69.321063,74.8438032 C76.8779526,89.7879792 69.321063,169.259995 69.321063,169.259995" id="Fill-20" fill="#FFFFFF" mask="url(#mask-2)"></path>
            <path d="M36.0932128,57.8600083 C36.0932128,57.8600083 49.4592928,70.3185427 51.1351072,186.194594 C51.145216,186.941522 51.656272,187.586239 52.4032,187.586239 L72.1670272,187.586239 C72.8712736,187.586239 73.4429824,187.015653 73.4429824,186.311407 L73.4429824,87.7371283 C73.4429824,78.3685171 68.3537632,69.6828115 60.0813952,65.2854835 C54.183472,62.1495091 46.2446944,59.1696595 36.0932128,57.8600083" id="Fill-22" fill="#54935B" mask="url(#mask-2)"></path>
            <polyline id="Fill-28" fill="#54935B" mask="url(#mask-2)" points="42.5167936 60.3577805 56.901616 87.6481709 52.8210304 92.3869517 63.6891136 108.649764 58.0113376 125.212472"></polyline>
            <path d="M17.583663,56.8924838 L17.583663,183.76354 C17.583663,185.875156 15.8719062,187.586913 13.7602902,187.586913 L-10.0874922,187.586913 C-10.6445994,187.586913 -11.0961258,187.135386 -11.0961258,186.578279 L-11.0961258,65.7073574 C-11.0961258,65.7073574 6.39546784,56.955383 17.583663,56.8924838" id="Fill-30" fill="#54935B" mask="url(#mask-2)"></path>
            <polyline id="Fill-34" fill="#54935B" mask="url(#mask-2)" points="15.0247888 60.6740736 7.5993136 88.2463872 15.0247888 91.4901888 7.0882576 110.557632 15.9233488 138.316397"></polyline>
            <path d="M17.583663,56.8924838 C17.583663,56.8924838 28.9863894,61.5369158 36.0928758,57.859559 C36.0928758,57.859559 41.3213718,60.1587494 39.0165654,62.548919 C36.711759,64.9402118 31.8157302,64.8761894 29.6254902,60.3575558 C29.6254902,60.3575558 24.7597878,65.5793126 20.2770966,64.233719 C15.741615,62.8735238 17.583663,56.8924838 17.583663,56.8924838" id="Fill-38" fill="#54935B" mask="url(#mask-2)"></path>
            <path d="M41.5457872,27.0781507 C40.2103024,25.4933155 39.5273968,23.5086211 39.4263088,21.4385635 C39.298264,18.8450947 38.1526,16.2909379 35.973592,14.4264259 C32.4624688,11.4218659 27.1531024,11.3095459 23.52292,14.1714595 C20.5981072,16.4762659 19.36708,20.0008675 19.84444,23.3334019 C19.8657808,23.4839107 19.8736432,23.6344195 19.8859984,23.7838051 C19.7388592,23.7692035 19.5950896,23.7400003 19.4423344,23.7400003 C17.002744,23.7400003 15.0247888,25.7179555 15.0247888,28.1575459 C15.0247888,29.9131075 16.0570096,31.4159491 17.5407568,32.1291811 C17.2374928,33.1625251 17.0409328,34.2430435 16.9870192,35.3662435 C16.907272,37.0128547 17.1285424,38.6010595 17.5834384,40.0926691 L17.5834384,60.3574435 L36.0926512,60.3574435 L36.0926512,48.9502243 C40.399,47.2058947 43.7113168,43.3477027 44.5795504,38.6325091 C45.386008,34.2565219 44.1089296,30.1186531 41.5457872,27.0781507" id="Fill-40" fill="#FFFFFF" mask="url(#mask-2)"></path>
            <path d="M41.5457872,27.0781507 C40.2103024,25.4933155 39.5273968,23.5086211 39.4263088,21.4385635 C39.298264,18.8450947 38.1526,16.2909379 35.973592,14.4264259 C32.4624688,11.4218659 27.1531024,11.3095459 23.52292,14.1714595 C20.5981072,16.4762659 19.36708,20.0008675 19.84444,23.3334019 C19.8657808,23.4839107 19.8736432,23.6344195 19.8859984,23.7838051 C19.7388592,23.7692035 19.5950896,23.7400003 19.4423344,23.7400003 C17.002744,23.7400003 15.0247888,25.7179555 15.0247888,28.1575459 C15.0247888,29.9131075 16.0570096,31.4159491 17.5407568,32.1291811 C17.2374928,33.1625251 17.0409328,34.2430435 16.9870192,35.3662435 C16.907272,37.0128547 17.1285424,38.6010595 17.5834384,40.0926691 L17.5834384,60.3574435 L36.0926512,60.3574435 L36.0926512,48.9502243 C40.399,47.2058947 43.7113168,43.3477027 44.5795504,38.6325091 C45.386008,34.2565219 44.1089296,30.1186531 41.5457872,27.0781507 Z" id="Stroke-42" stroke="#54935B" stroke-width="1.1232" mask="url(#mask-2)"></path>
            <path d="M28.6011318,32.1572611 C28.8459894,32.6896579 29.0706294,33.2220547 29.3300886,33.7353571 C29.585055,34.2509059 29.8950582,34.7305123 30.2005686,35.1966403 C30.376911,35.4089251 30.5274198,35.6470435 30.725103,35.8290019 C30.9059382,36.0311779 31.1103606,36.1940419 31.3114134,36.3512899 C31.522575,36.4939363 31.741599,36.6051331 31.9673622,36.6770179 C32.196495,36.7354243 32.4256278,36.7646275 32.6581302,36.7466563 C32.8895094,36.7320547 33.1253814,36.6826339 33.3545142,36.5860387 C33.5847702,36.5017987 33.8105334,36.3748771 34.0284342,36.2344771 C34.4619894,35.9469379 34.8786966,35.5987459 35.2605846,35.2045027 C36.015375,34.4160163 36.7095126,33.4972387 37.2823446,32.5649827 L38.087679,33.2624899 C37.7046678,33.4927459 37.3643382,33.7926403 36.936399,33.9420259 C36.5331702,34.1419555 36.105231,34.2688771 35.6705526,34.3699651 C35.4582678,34.4396035 35.2336278,34.4373571 35.015727,34.4721763 C34.7955798,34.5002563 34.5765558,34.5159811 34.3575318,34.5025027 C33.9172374,34.5114883 33.4870518,34.4508355 33.0602358,34.3890595 C32.2178358,34.2138403 31.4091318,33.9386563 30.6655734,33.5466595 C29.9253846,33.1546627 29.2121526,32.7166147 28.6011318,32.1572611 M28.6011318,32.1572611 C30.0500598,32.9333923 31.6113078,33.4657891 33.1669398,33.6129283 C33.5566902,33.6331459 33.943071,33.6544867 34.3238358,33.6118051 C34.515903,33.6084355 34.7034774,33.5769859 34.8876822,33.5354275 C35.071887,33.4927459 35.2650774,33.4904995 35.4402966,33.4186147 C35.8008438,33.3130339 36.1524054,33.1894819 36.4770102,33.0030307 C36.824079,32.8637539 37.1003862,32.5919395 37.4204982,32.4054883 L39.244575,31.3418179 L38.2258326,33.1029955 C37.9147062,33.6410083 37.587855,34.1262307 37.2295542,34.6125763 C36.8712534,35.0955523 36.470271,35.5482019 36.0389622,35.9795107 C35.6020374,36.4040803 35.1325398,36.8162947 34.5754326,37.1330371 C34.2980022,37.2914083 34.0059702,37.4363011 33.6869814,37.5351427 C33.375855,37.6440931 33.0321558,37.7036227 32.685087,37.7058691 C32.3380182,37.7171011 31.9909494,37.6317379 31.668591,37.5149251 C31.3496022,37.3823875 31.0665558,37.2015523 30.8138358,36.9937603 C30.5745942,36.7758595 30.3454614,36.5500963 30.1702422,36.2928835 C29.9703126,36.0513955 29.8388982,35.7762115 29.6760342,35.5189987 C29.1312822,34.4407267 28.8078006,33.3051715 28.6011318,32.1572611" id="Fill-44" fill="#54935B" mask="url(#mask-2)"></path>
            <path d="M27.3641517,25.6903248 C27.3641517,25.6903248 27.7516557,25.8565584 28.3323501,26.107032 C28.8849645,26.34852 29.5993197,26.6326896 30.2518989,26.7090672 C30.4113933,26.7068208 30.5787501,26.7517488 30.7292589,26.71356 C30.8842605,26.7012048 31.0392621,26.6888496 31.1841549,26.6360592 C31.4784333,26.556312 31.7659725,26.4226512 32.0074605,26.2665264 C32.1242733,26.1867792 32.2601805,26.135112 32.3500365,26.0519952 C32.4443853,25.9744944 32.5387341,25.9115952 32.6139885,25.8576816 C32.7689901,25.7509776 32.8700781,25.6903248 32.8700781,25.6903248 C32.8700781,25.6903248 32.8521069,25.798152 32.7981933,25.9846032 C32.7386637,26.168808 32.6712717,26.4507312 32.4601101,26.724792 C32.3635149,26.8685616 32.2680429,27.0381648 32.1006861,27.1617168 C31.9434381,27.2953776 31.7884365,27.4638576 31.5660429,27.5480976 C31.3571277,27.6592944 31.1313645,27.7615056 30.8797677,27.7873392 C30.6326637,27.8513616 30.3833133,27.8210352 30.1317165,27.8244048 C29.8947213,27.7738608 29.6453709,27.7390416 29.4319629,27.651432 C29.2073229,27.5806704 29.0096397,27.4683504 28.8265581,27.3582768 C28.4570253,27.1392528 28.1672397,26.8719312 27.9493389,26.6225808 C27.5090445,26.1261264 27.3641517,25.6903248 27.3641517,25.6903248" id="Fill-46" fill="#54935B" mask="url(#mask-2)"></path>
            <path d="M35.853185,25.6903248 C35.853185,25.6903248 36.2159786,25.8621744 36.673121,26.1092784 C36.9056234,26.2283376 37.1650826,26.3631216 37.4301578,26.477688 C37.560449,26.5417104 37.700849,26.5810224 37.8288938,26.6248272 C37.959185,26.6843568 38.0861066,26.68548 38.2096586,26.7101904 C38.4489002,26.7438864 38.6634314,26.7068208 38.8936874,26.62932 C39.1194506,26.5360944 39.3497066,26.4001872 39.5496362,26.2451856 C39.7652906,26.112648 39.9146762,25.9419216 40.0528298,25.848696 C40.1842442,25.747608 40.2718538,25.6903248 40.2718538,25.6903248 C40.2718538,25.6903248 40.2707306,25.78692 40.2482666,25.9565232 C40.2134474,26.1205104 40.2067082,26.3788464 40.0584458,26.640552 C39.9876842,26.7742128 39.9337706,26.9348304 39.812465,27.0707376 C39.6855434,27.2032752 39.5754698,27.3740016 39.391265,27.4851984 C39.2048138,27.5919024 39.0194858,27.7390416 38.7779978,27.7704912 C38.5466186,27.8412528 38.3096234,27.8322672 38.071505,27.8244048 C37.133633,27.6705264 36.5405834,27.0527664 36.235073,26.5776528 C35.914961,26.0924304 35.853185,25.6903248 35.853185,25.6903248" id="Fill-48" fill="#54935B" mask="url(#mask-2)"></path>
            <path d="M34.2036534,23.4492038 C34.2036534,23.4492038 34.2530742,23.5929734 34.3395606,23.8456934 C34.420431,24.0894278 34.5338742,24.4376198 34.6709046,24.8565734 C34.7439126,25.0576262 34.8292758,25.269911 34.9213782,25.4844422 C35.0179734,25.6989734 35.139279,25.9191206 35.2583382,26.1392678 C35.5177974,26.5863014 35.8221846,27.0659078 36.1366806,27.5747174 C36.4298358,28.1037446 36.7308534,28.6271558 36.8937174,29.2561478 C36.9802038,29.5627814 37.0026678,29.9233286 36.936399,30.2299622 C36.880239,30.5624294 36.7319766,30.812903 36.5837142,31.0195718 C36.2804502,31.4272934 35.947983,31.6362086 35.7244662,31.7822246 C35.4953334,31.9226246 35.3560566,31.9877702 35.3560566,31.9877702 C35.3560566,31.9877702 35.431311,31.8563558 35.5649718,31.6260998 C35.6941398,31.4003366 35.8906998,31.0802246 36.0164982,30.711815 C36.1400502,30.329927 36.1366806,29.9851046 35.9513526,29.5582886 C35.7615318,29.1370886 35.4694998,28.6316486 35.1696054,28.145303 C34.8854358,27.6387398 34.5709398,27.1130822 34.364271,26.5570982 C34.2485814,26.2774214 34.1778198,25.9977446 34.122783,25.730423 C34.0643766,25.460855 34.0475286,25.2036422 34.0396662,24.9711398 C34.0194486,24.0388838 34.2036534,23.4492038 34.2036534,23.4492038" id="Fill-50" fill="#54935B" mask="url(#mask-2)"></path>
            <path d="M16.7881005,25.7107287 C17.7147405,25.7062742 18.6402573,26.0971478 19.3714605,26.7362486 C19.7308845,27.0619766 20.0633517,27.4416182 20.2913613,27.8807894 C20.4182829,28.0941974 20.5070157,28.3233302 20.6002413,28.552463 C20.6979597,28.7804726 20.7316557,29.0253302 20.7968013,29.2612022 L21.3550317,31.2616214 L19.8667917,29.7632726 C19.6466445,29.5420022 19.3871853,29.3072534 19.1434509,29.097215 C18.8896077,28.8961622 18.6290253,28.6996022 18.3841677,28.586159 C18.3291309,28.5704342 18.2572461,28.5255062 18.2123181,28.5255062 C18.1662669,28.518767 18.1011213,28.4861942 18.0674253,28.501919 C18.0236205,28.4985494 17.9741997,28.4996726 17.9360109,28.5344918 C17.8877133,28.546847 17.8382925,28.586159 17.7967341,28.6445654 C17.6855373,28.732175 17.6428557,28.9040246 17.5529997,29.0511638 L17.3755341,29.5644662 C17.3373453,29.3858774 17.2924173,29.1994262 17.2755693,29.007359 C17.2834317,28.8119222 17.2643373,28.6131158 17.3586861,28.3985846 C17.3867661,28.288511 17.4384333,28.1829302 17.5395213,28.0885814 C17.6203917,27.979631 17.7304653,27.9077462 17.8630029,27.8549558 C17.9921709,27.783071 18.1134765,27.7841942 18.2448909,27.766223 C18.3796749,27.7471286 18.4785165,27.783071 18.5998221,27.7931798 C19.0434861,27.878543 19.4017869,28.0649942 19.7320077,28.2727862 C20.0700909,28.479455 20.3565069,28.7108342 20.6496621,28.9882646 L19.7196525,29.490335 C19.6039629,29.1129398 19.5096141,28.7299286 19.3276557,28.3828598 C19.1602989,28.030175 18.9592461,27.6909686 18.7042797,27.3809654 C18.2111949,26.744111 17.5608621,26.199359 16.7881005,25.7107287" id="Fill-52" fill="#54935B" mask="url(#mask-2)"></path>
            <path d="M27.3641517,23.1932266 C27.3641517,23.1932266 27.4820877,22.8147082 27.8830701,22.4283274 C28.2683277,22.0307146 28.9523565,21.6443338 29.7206253,21.5623402 C29.9104461,21.5376298 30.1025133,21.5511082 30.2900877,21.5533546 C30.4787853,21.5454922 30.6596205,21.6151306 30.8325933,21.6420874 C31.0078125,21.6724138 31.1639373,21.7566538 31.3121997,21.813937 C31.4638317,21.8656042 31.5885069,21.959953 31.7053197,22.0363306 C31.9434381,22.1778538 32.0995629,22.358689 32.2073901,22.4799946 C32.3129709,22.6035466 32.3646381,22.6810474 32.3646381,22.6810474 C32.3646381,22.6810474 32.2646733,22.6855402 32.1063021,22.6799242 C31.9490541,22.673185 31.7367693,22.6495978 31.4907885,22.6439818 C31.2481773,22.6260106 30.9763629,22.628257 30.6978093,22.622641 C30.4192557,22.6361194 30.1305933,22.6293802 29.8441773,22.678801 C29.5532685,22.6877866 29.2702221,22.7652874 28.9894221,22.8045994 C28.7153613,22.8674986 28.4446701,22.9214122 28.2076749,22.982065 L27.3641517,23.1932266 Z" id="Fill-54" fill="#54935B" mask="url(#mask-2)"></path>
            <path d="M35.853185,22.6421846 C35.853185,22.6421846 35.937425,22.3546454 36.2507978,22.1154038 C36.4024298,21.9918518 36.605729,21.8795318 36.8393546,21.8177558 C37.071857,21.740255 37.3313162,21.7391318 37.588529,21.7481174 C37.841249,21.7885526 38.088353,21.8503286 38.2983914,21.9615254 C38.5073066,22.0704758 38.683649,22.2018902 38.8094474,22.3456598 C39.071153,22.6174742 39.1509002,22.8949046 39.1509002,22.8949046 C39.1509002,22.8949046 38.863361,22.936463 38.5365098,22.9297238 C38.369153,22.9274774 38.189441,22.9263542 38.0108522,22.908383 C37.8288938,22.9050134 37.650305,22.874687 37.4717162,22.8645782 C37.1190314,22.8252662 36.762977,22.7724758 36.4451114,22.7264246 L35.853185,22.6421846 Z" id="Fill-56" fill="#54935B" mask="url(#mask-2)"></path>
            <path d="M34.4945622,39.194783 C34.4945622,39.194783 34.3182198,39.2486966 34.0643766,39.4003286 C33.813903,39.5508374 33.4915446,39.8215286 33.2770134,40.2135254 C33.1804182,40.3921142 33.0973014,40.6448342 33.0703446,40.8717206 C33.0400182,41.1120854 33.0658518,41.3670518 33.1276278,41.6062934 C33.1444758,41.665823 33.1646934,41.7242294 33.1882806,41.7815126 L33.207375,41.8241942 L33.2118678,41.834303 L33.212991,41.8376726 C33.196143,41.8017302 33.252303,41.9196662 33.1748022,41.7590486 L33.179295,41.7657878 L33.196143,41.7916214 L33.2646582,41.8972022 L33.4028118,42.1083638 L33.4365078,42.1622774 L33.4533558,42.1892342 L33.4578486,42.1959734 C33.4308918,42.160031 33.5196246,42.2813366 33.398319,42.1162262 L33.4005654,42.1195958 L33.4117974,42.1308278 L33.4645878,42.1802486 C33.6083574,42.3082934 33.8689398,42.4172438 34.117167,42.4486934 C34.3609014,42.4936214 34.611375,42.468911 34.8090582,42.3801782 C35.0067414,42.289199 35.1550038,42.1690166 35.2583382,41.969087 C35.3515638,41.7792662 35.391999,41.5714742 35.352687,41.396255 C35.302143,41.205311 35.2021782,41.064911 35.0393142,40.9436054 C34.723695,40.7200886 34.313727,40.7571542 34.1317686,40.9424822 C33.931839,41.1278102 33.9419478,41.3356022 33.9419478,41.3356022 C33.9576726,41.3423414 33.8105334,41.1648758 33.9453174,40.8189302 C34.0654998,40.4729846 34.6585494,40.1259158 35.3088822,40.3584182 C35.616639,40.452767 35.9659542,40.7189654 36.1321878,41.0884982 C36.3152694,41.4703862 36.3276246,41.935391 36.172623,42.345359 C36.032223,42.7485878 35.7053718,43.1664182 35.2763094,43.3596086 C34.8562326,43.5662774 34.386735,43.6224374 33.9453174,43.558415 C33.746511,43.5292118 33.4724502,43.4393558 33.3208182,43.3663478 C33.0984246,43.2630134 32.9187126,43.1506934 32.735631,42.9833366 C32.6985654,42.9485174 32.6390358,42.8867414 32.6087094,42.850799 L32.5986006,42.839567 L32.5323318,42.749711 L32.5289622,42.7418486 L32.5132374,42.7148918 L32.482911,42.6576086 L32.3694678,42.4318454 L32.3133078,42.3195254 L32.2998294,42.2914454 L32.2537782,42.1948502 L32.2481622,42.1757558 L32.2256982,42.1016246 C32.1976182,42.0016598 32.1762774,41.9005718 32.1605526,41.8017302 C32.0942838,41.401871 32.1470742,41.0121206 32.258271,40.6740374 C32.3728374,40.3224758 32.544687,40.0574006 32.7659574,39.8248982 C33.190527,39.3823574 33.6757494,39.2329718 33.993615,39.1902902 C34.319343,39.1509782 34.4945622,39.194783 34.4945622,39.194783" id="Fill-58" fill="#54935B" mask="url(#mask-2)"></path>
            <path d="M36.0932128,48.950449 C36.0932128,48.950449 27.7478368,51.6214186 23.0517376,43.5119146 C23.0517376,43.5119146 26.5965568,56.1467914 36.0932128,53.0737162 L36.0932128,48.950449 Z" id="Fill-60" fill="#B9C4D2" mask="url(#mask-2)"></path>
            <path d="M19.8936362,23.762352 C19.8936362,23.762352 21.3335786,28.6303008 24.2157098,27.160032 C27.0967178,25.6897632 23.1879818,18.9977376 27.912161,17.270256 C27.912161,17.270256 29.209457,16.53456 30.7459946,17.6869632 C31.9961162,18.6248352 34.5626282,18.297984 35.8632938,17.2713792 C36.7416362,16.5772416 38.0535338,16.770432 38.4915818,17.8004064 C38.5949162,18.0407712 38.6926346,18.3215712 38.7813674,18.6472992 C39.5900714,21.5788512 39.2935466,24.217248 40.9659914,26.3041536 C40.9659914,26.3041536 52.4158922,21.3182688 49.8999242,12.5662944 C49.8999242,12.5662944 47.2974698,4.3691808 38.503937,7.9971168 C38.503937,7.9971168 39.834929,4.6870464 36.5023946,3.8019648 C33.168737,2.9180064 29.6722154,4.5882048 27.9200234,6.976128 C27.9200234,6.976128 13.7834282,8.6755296 16.326353,21.2272896 C16.326353,21.2272896 9.77472736,22.279728 10.0105994,28.1574336 C10.0105994,28.1574336 9.26254816,33.7386144 14.534849,34.3563744 C14.534849,34.3563744 12.7983818,40.559808 17.5832138,41.1820608 L17.5832138,32.1650112 C17.5832138,32.1650112 15.029057,31.3169952 15.1874282,27.8350752 C15.3457994,24.3531552 18.4525706,23.739888 19.8936362,23.762352" id="Fill-62" fill="#B9C4D2" mask="url(#mask-2)"></path>
            <path d="M19.8936362,23.762352 C19.8936362,23.762352 21.3335786,28.6303008 24.2157098,27.160032 C27.0967178,25.6897632 23.1879818,18.9977376 27.912161,17.270256 C27.912161,17.270256 29.209457,16.53456 30.7459946,17.6869632 C31.9961162,18.6248352 34.5626282,18.297984 35.8632938,17.2713792 C36.7416362,16.5772416 38.0535338,16.770432 38.4915818,17.8004064 C38.5949162,18.0407712 38.6926346,18.3215712 38.7813674,18.6472992 C39.5900714,21.5788512 39.2935466,24.217248 40.9659914,26.3041536 C40.9659914,26.3041536 52.4158922,21.3182688 49.8999242,12.5662944 C49.8999242,12.5662944 47.2974698,4.3691808 38.503937,7.9971168 C38.503937,7.9971168 39.834929,4.6870464 36.5023946,3.8019648 C33.168737,2.9180064 29.6722154,4.5882048 27.9200234,6.976128 C27.9200234,6.976128 13.7834282,8.6755296 16.326353,21.2272896 C16.326353,21.2272896 9.77472736,22.279728 10.0105994,28.1574336 C10.0105994,28.1574336 9.26254816,33.7386144 14.534849,34.3563744 C14.534849,34.3563744 12.7983818,40.559808 17.5832138,41.1820608 L17.5832138,32.1650112 C17.5832138,32.1650112 15.029057,31.3169952 15.1874282,27.8350752 C15.3457994,24.3531552 18.4525706,23.739888 19.8936362,23.762352 Z" id="Stroke-64" stroke="#54935B" stroke-width="1.1232" mask="url(#mask-2)"></path>
            <path d="M-24.4371584,126.975222 C-25.2795584,124.607516 -24.811184,121.980351 -23.2038848,120.047324 C-15.1101056,110.313673 -3.3771584,96.1096858 1.5379648,89.697337 C9.3925024,79.4526298 3.1868224,60.3582298 3.1868224,60.3582298 C-38.1963584,70.956745 -47.8637408,110.932556 -46.9404704,124.014467 L-47,124.016713 C-45.1703072,165.165145 -11.3518784,183.437363 -8.5450016,183.758598 C-5.7370016,184.079833 3.7877344,177.582121 3.7877344,177.582121 C-9.4267136,166.714038 -20.6901632,137.508591 -24.4371584,126.975222" id="Fill-68" fill="#54935B" mask="url(#mask-2)"></path>
            <path d="M111.274492,162.672876 C87.7322205,179.309715 69.8969277,151.875555 69.8969277,151.875555 L69.9070365,151.875555 C52.7366781,129.265539 48.6089181,61.0165373 48.6089181,61.0165373 C48.6089181,61.0165373 83.7167805,69.5191613 88.2657405,103.602665 C88.2657405,103.602665 88.5218301,104.637132 88.9621245,106.409542 C89.1261117,107.065491 89.3103165,107.823651 89.5147389,108.673913 C91.6971165,117.678608 96.0820893,136.395612 97.1985501,145.779948 C110.79264,136.969568 109.502083,127.288707 109.502083,127.288707 L122.113372,122.421881 C122.113372,122.421881 124.500172,153.330099 111.274492,162.672876" id="Fill-84" fill="#54935B" mask="url(#mask-2)"></path>
            <path d="M48.6084688,61.0162003 C48.6084688,61.0162003 57.578344,156.77237 83.5624528,164.596581 C83.5624528,164.596581 121.481685,185.86662 122.112923,122.421544 L109.536453,128.063378 C109.536453,128.063378 106.609394,146.087368 96.9869392,142.406642 C96.9869392,142.406642 91.847176,62.2124083 48.6084688,61.0162003 Z" id="Stroke-96" stroke="#FCFCFC" stroke-width="1.1232" mask="url(#mask-2)"></path>
        </g>
    </g>
</svg>