<?xml version="1.0" encoding="UTF-8"?>
<svg width="62px" height="62px" viewBox="0 0 62 62" version="1.1" xmlns="http://www.w3.org/2000/svg" xmlns:xlink="http://www.w3.org/1999/xlink">
    <!-- Generator: Sketch 58 (84663) - https://sketch.com -->
    <title>Group</title>
    <desc>Created with Sketch.</desc>
    <defs>
        <circle id="path-1" cx="31" cy="31" r="31"></circle>
    </defs>
    <g id="Page-1" stroke="none" stroke-width="1" fill="none" fill-rule="evenodd">
        <g id="Group">
            <mask id="mask-2" fill="white">
                <use xlink:href="#path-1"></use>
            </mask>
            <use id="Mask" fill="#F1F1F1" xlink:href="#path-1"></use>
            <g mask="url(#mask-2)">
                <g transform="translate(-25.000000, 6.000000)">
                    <path d="M62.2843603,48.2735635 C62.2843603,48.2735635 62.1994464,48.6556762 62.0296186,49.3774445 C61.8597907,50.0992128 61.605049,51.1181798 61.1804794,52.4343456 C60.7559098,53.7505114 60.2464262,55.2789619 59.6095718,57.1046112 C59.0151744,58.8878035 58.2934061,60.9257376 57.7839226,63.1759565 C57.274439,65.4261754 56.9347834,67.973593 57.1895251,70.6059245 C57.4442669,73.238256 58.2509491,75.9979584 59.9916845,78.3330912 C60.8408237,79.4794291 61.9447046,80.4983962 63.3033274,80.9654227 C63.642983,81.0927936 63.9826387,81.1777075 64.3647514,81.2201645 C64.704407,81.2626214 65.0865197,81.2626214 65.4261754,81.2201645 C65.765831,81.1777075 66.1054867,81.0927936 66.4451424,80.9229658 C66.7847981,80.7531379 67.0819968,80.5833101 67.3367386,80.3285683 C69.4595866,78.2906342 69.1623878,74.2147661 66.6149702,72.6014016 C65.4261754,71.7522624 63.8552678,71.4126067 62.3692742,71.5824346 C60.8832806,71.7098054 59.482201,72.2617459 58.335863,73.238256 C57.1895251,74.1723091 56.3403859,75.403561 55.7459885,76.7197267 C55.151591,78.0358925 54.8543923,79.4794291 54.7270214,80.8805088 C54.5147366,83.7251251 55.194048,86.4848275 55.9582733,89.0322451 C56.7649555,91.5796627 57.7414656,93.8723386 58.8028896,95.9527296 C59.9067706,97.9906637 61.0955654,99.773856 62.3268173,101.174936 C63.5580691,102.618472 64.746864,103.722353 65.850745,104.529036 C66.9546259,105.335718 67.8462221,105.887658 68.4830765,106.227314 C69.1199309,106.56697 69.5020435,106.736797 69.5020435,106.736797 L69.4595866,106.821711 C69.4595866,106.821711 69.1199309,106.651884 68.4406195,106.354685 C67.7613082,106.057486 66.827255,105.548003 65.6809171,104.74132 C64.5770362,103.934638 63.3033274,102.873214 62.0296186,101.429677 C60.7559098,99.9861408 59.482201,98.2454054 58.335863,96.2074714 C57.1895251,94.1695373 56.1705581,91.7919475 55.3214189,89.2445299 C54.4722797,86.6971123 53.8354253,83.852496 54.0052531,80.8380518 C54.090167,79.3520582 54.4722797,77.8236077 55.1091341,76.422528 C55.7459885,75.0214483 56.6800416,73.7052826 57.9537504,72.6863155 C59.1850022,71.6673485 60.7559098,71.072951 62.3692742,70.9455802 C63.9826387,70.8182093 65.6384602,71.2003219 66.9970829,72.134375 C67.1669107,72.2617459 67.3367386,72.3891168 67.4641094,72.5164877 C67.5490234,72.6014016 67.5914803,72.6438586 67.6763942,72.7287725 L67.888679,72.9410573 C68.1434208,73.238256 68.3981626,73.5779117 68.6104474,73.9600243 C68.99256,74.6817926 69.2048448,75.4884749 69.2897587,76.2951571 C69.4171296,77.9085216 68.9076461,79.6068 67.7188512,80.710681 C67.4216525,80.9654227 67.0819968,81.2201645 66.6998842,81.3899923 C66.3177715,81.5598202 65.9356589,81.6447341 65.5535462,81.729648 C65.1714336,81.772105 64.746864,81.772105 64.3647514,81.729648 C63.9826387,81.687191 63.6005261,81.6022771 63.2184134,81.4324493 C61.7324198,80.8805088 60.5860819,79.7766278 59.6944858,78.587833 C57.9537504,76.1677862 57.1470682,73.3231699 56.8923264,70.6483814 C56.6800416,67.973593 57.0196973,65.3837184 57.5716378,63.1334995 C58.1235782,60.8408237 58.8453466,58.8453466 59.482201,57.0196973 C60.1190554,55.236505 60.6709958,53.6655974 61.0955654,52.3918886 C61.520135,51.1181798 61.8173338,50.0567558 61.9871616,49.3774445 C62.1569894,48.6556762 62.2419034,48.2735635 62.2419034,48.2735635 L62.2843603,48.2735635 Z" id="Path" stroke="none" fill="#FFFFFF" fill-rule="nonzero"></path>
                    <path d="M64.0675526,65.4261754 C64.746864,64.9591488 65.4261754,64.4496653 66.0630298,63.9401818 C68.950103,61.6475059 71.2427789,59.397287 72.6863155,56.0007302 C74.0873952,52.7315443 75.5733888,48.2735635 74.9365344,44.6647219 C74.29968,41.2257082 76.380071,38.8481184 78.4180051,36.2157869 C79.9464557,34.2203098 81.3899923,31.800263 80.9654227,29.2953024 C80.2011974,24.8797786 74.0449382,22.5871027 74.0024813,18.1291219 C74.0024813,16.3034726 75.0639053,14.6051942 75.0214483,12.779545 C74.9789914,10.3594982 73.0259712,8.40647808 70.9880371,7.13276928 C68.9076461,5.85906048 66.5725133,5.00992128 64.789321,3.3965568 C63.6005261,2.3351328 62.4117312,0.50948352 60.7134528,0.16982784 C59.482201,-0.04245696 57.6565517,0.16982784 56.3403859,0.25474176 C53.113657,0.46702656 49.7595571,1.61336448 47.0847686,3.3965568 C44.8345498,4.92500736 42.7541587,7.0053984 42.1597613,9.63772992 C41.6927347,11.8030349 42.2446752,14.1381677 41.6502778,16.2610157 C40.6313107,20.0821421 36.5129856,21.9927053 33.6683693,24.7524077 C32.0974618,26.2808582 30.8662099,28.1914214 30.3567264,30.3142694 C29.8472429,32.4371174 30.1868986,34.8147072 31.4606074,36.5978995 C32.0125478,37.3621248 32.7767731,38.0414362 33.3287136,38.8056614 C34.5175085,40.4190259 34.984535,42.5418739 34.5175085,44.4948941 C34.2203098,45.8959738 33.4985414,47.1272256 33.0315149,48.4858483 C31.4606074,53.1561139 34.1353958,57.1470682 36.7677274,60.7983667 C38.0414362,62.5391021 39.3576019,64.3222944 41.0983373,65.5535462 C43.518384,67.2518246 46.5328282,67.7613082 49.4623584,68.1009638 C52.9013722,68.5255334 56.5102138,68.6953613 59.7793997,67.5490234 C61.3927642,67.0819968 62.7513869,66.3177715 64.0675526,65.4261754 Z" id="Path" stroke="#54935B" stroke-width="0.724315738" fill="#B9C4D2" fill-rule="nonzero"></path>
                    <path d="M27.9791366,73.7052826 C22.7144736,75.1912762 17.3648966,76.422528 11.9728627,77.3565811 C10.2321274,77.6537798 4.33060992,79.9464557 4.4579808,76.380071 C4.58535168,72.9835142 11.9728627,71.2852358 14.4353664,70.3936397 C17.5771814,69.2897587 20.6765395,68.1434208 23.7758976,66.912169 C26.7903418,65.7233741 30.0595277,64.8742349 32.1399187,62.3268173 C34.5175085,59.3548301 36.7252704,56.213015 39.1877741,53.2834848 C41.6927347,50.3539546 44.8345498,48.0612787 47.806537,45.641232 C48.825504,44.7920928 50.0992128,43.9004966 51.3304646,44.3250662 C52.3918886,44.7071789 52.9438291,45.8959738 53.113657,47.0423117 C53.6231405,50.8209811 51.3304646,54.3873658 48.867961,57.316896 C46.2356294,60.501168 43.3060992,63.4306982 40.1642842,66.1054867 C38.6358336,67.4216525 37.0649261,68.6529043 35.4940186,69.8841562 C34.4750515,70.6908384 33.4136275,71.4975206 32.2672896,72.134375 C30.9086669,72.8561434 29.4226733,73.3231699 27.9791366,73.7052826 Z" id="Path" stroke="#54935B" stroke-width="0.724315738" fill="#FFFFFF" fill-rule="nonzero"></path>
                    <g id="Group" stroke="none" stroke-width="1" fill="none" fill-rule="evenodd" transform="translate(68.682298, 40.334112)">
                        <path d="M25.2324979,29.677415 C30.497161,31.1634086 35.8467379,32.3946605 41.2387718,33.3287136 C42.9795072,33.6259123 48.8810246,35.9185882 48.7536538,32.3522035 C48.6262829,28.9556467 41.2387718,27.2573683 38.7762682,26.3657722 C35.6344531,25.2618912 32.535095,24.1155533 29.435737,22.8843014 C26.4212928,21.6955066 23.1521069,20.8463674 21.0717158,18.2989498 C18.6941261,15.3269626 16.4863642,12.1851475 14.0238605,9.25561728 C11.5188998,6.32608704 8.3770848,4.0334112 5.4050976,1.61336448 C4.38613056,0.76422528 3.11242176,-0.12737088 1.88116992,0.29719872 C0.81974592,0.67931136 0.26780544,1.86810624 0.0979776,3.01444416 C-0.41150592,6.7931136 1.88116992,10.3594982 4.3436736,13.2890285 C6.97600512,16.4733005 9.90553536,19.4028307 13.0473504,22.0776192 C14.575801,23.393785 16.1467085,24.6250368 17.717616,25.8562886 C18.736583,26.6629709 19.798007,27.4696531 20.944345,28.1065075 C22.3029677,28.8282758 23.7889613,29.2528454 25.2324979,29.677415 Z" id="Path" stroke="#54935B" stroke-width="0.724315738" fill="#FFFFFF" fill-rule="nonzero"></path>
                    </g>
                    <path d="M82.7061581,49.2076166 C82.833529,49.1227027 83.0033568,49.0802458 83.0458138,48.9104179 C83.0882707,48.783047 83.0458138,48.6556762 83.0033568,48.5707622 C81.8994758,45.0892915 81.9419328,46.0233446 80.5833101,42.6267878 C79.6068,40.2491981 71.6673485,36.9375552 69.4171296,36.979608 C65.6809171,37.0224691 61.9447046,37.2347539 58.2934061,38.0838931 C49.8020141,40.0369133 43.475927,44.9619206 38.253721,51.7125773 C38.0414362,51.967319 37.8291514,52.2645178 37.8716083,52.5617165 C37.9140653,52.8589152 38.1263501,53.113657 38.3386349,53.3259418 C39.9519994,54.9817632 41.5229069,56.6375846 43.1362714,58.2509491 C44.1552384,59.2699162 45.0468346,60.3737971 46.0658016,61.3927642 C46.1507155,61.4776781 46.1931725,61.520135 46.2780864,61.520135 C46.3630003,61.520135 46.4479142,61.4776781 46.4903712,61.4352211 C47.1696826,60.9681946 47.806537,60.458711 48.4858483,59.9916845 C48.4433914,59.9916845 48.3160205,62.0720755 48.2735635,62.4117312 C48.0188218,63.5580691 47.6367091,64.704407 47.3395104,65.850745 C46.745113,68.0585069 46.1507155,70.2238118 45.5138611,72.4315738 C44.2826093,76.8895546 43.0089005,81.3475354 41.6927347,85.8055162 C41.5653638,86.1876288 41.4804499,86.6121984 41.5229069,86.994311 C42.0323904,90.1361261 48.6981331,89.8389274 50.8634381,90.0512122 C57.5291808,90.7729805 64.2798374,90.9428083 70.9880371,90.6031526 C71.6673485,90.5606957 72.3891168,90.5182387 72.9835142,90.1361261 C73.7052826,89.6266426 73.9600243,88.7350464 74.1298522,87.8859072 C75.1488192,83.3430125 75.1912762,78.6302899 75.1488192,73.9600243 C75.1063622,66.5725133 74.9365344,59.1850022 74.6817926,51.7974912 C76.2102432,51.7550342 77.6537798,51.0757229 79.0548595,50.5662394 C80.3285683,50.1841267 81.5173632,49.8020141 82.7061581,49.2076166 Z" id="Path" stroke="none" fill="#54935B" fill-rule="nonzero"></path>
                    <path d="M82.833529,49.2076166 C82.9608998,49.1227027 83.1307277,49.0802458 83.1731846,48.9104179 C83.2156416,48.783047 83.1731846,48.6556762 83.1307277,48.5707622 C82.0268467,45.0892915 81.772105,46.9573978 80.4134822,43.560841 C79.4369722,41.1832512 71.7947194,36.9375552 69.5869574,36.9375552 C66.6998842,36.9375552 63.7703539,37.107383 60.8832806,37.5744096 C62.2843603,37.9565222 63.727897,38.3810918 64.0250957,38.5084627 C66.9970829,39.9944563 69.035017,42.0323904 70.3511827,44.4524371 C71.7098054,46.9573978 72.3042029,49.886928 72.4740307,53.1561139 C72.9835142,62.624016 73.9600243,72.9410573 69.6718714,81.772105 C67.931136,85.3384896 64.9591488,88.4803046 61.1380224,89.4992717 C58.2934061,90.22104 55.4063328,89.7540134 52.5192595,89.6690995 C50.4388685,89.5841856 48.3160205,89.6690995 46.1931725,89.6690995 C48.0612787,89.9238413 50.0142989,89.9238413 51.0332659,90.0512122 C57.6990086,90.7729805 64.4496653,90.9428083 71.157865,90.6031526 C71.8371763,90.5606957 72.5589446,90.5182387 73.1533421,90.1361261 C73.8751104,89.6266426 74.1298522,88.7350464 74.29968,87.8859072 C75.318647,83.3430125 75.361104,78.6302899 75.318647,73.9600243 C75.2761901,66.5725133 75.1063622,59.1850022 74.8516205,51.7974912 C76.380071,51.7550342 77.8236077,51.0757229 79.2246874,50.5662394 C80.4559392,50.1841267 81.6447341,49.8020141 82.833529,49.2076166 Z" id="Path" stroke="none" fill="#231F20" fill-rule="nonzero" opacity="0.2"></path>
                    <path d="M60.2039693,43.9004966 C59.1425453,42.7541587 58.0811213,41.5653638 57.1046112,40.334112 C55.236505,37.9989792 56.0856442,34.0929389 56.0856442,31.2058656 C56.0856442,30.3142694 56.0856442,29.4226733 56.4677568,28.615991 C56.9347834,27.6819379 57.9537504,27.0875405 58.9727174,26.8327987 C59.9916845,26.578057 61.0531085,26.6629709 62.1145325,26.7054278 C62.4117312,26.7054278 62.7513869,26.7478848 62.9636717,26.9601696 C63.727897,27.639481 63.5580691,28.9556467 63.642983,29.8472429 C63.7703539,31.1634086 64.0675526,32.4795744 64.3647514,33.7957402 C65.1289766,37.3196678 65.5110893,40.5888538 65.2138906,44.1976954 C65.1714336,44.7071789 64.8317779,48.2311066 64.8317779,48.2311066 C64.8317779,48.2311066 61.6475059,45.4714042 60.2039693,43.9004966 Z" id="Path" stroke="#54935B" stroke-width="0.724315738" fill="#FFFFFF" fill-rule="nonzero"></path>
                    <path d="M57.274439,34.008025 C59.3548301,35.3241907 62.2419034,36.130873 64.704407,35.4091046 C64.6194931,34.8996211 64.4921222,34.3476806 64.3647514,33.8381971 C64.0675526,32.5220314 63.7703539,31.2483226 63.642983,29.8896998 C63.5580691,28.9981037 63.727897,27.6819379 62.9636717,27.0026266 C62.7513869,26.7903418 62.4117312,26.7903418 62.1145325,26.7478848 C61.0531085,26.7054278 59.9916845,26.6205139 58.9727174,26.8752557 C57.9537504,27.1299974 56.9772403,27.7243949 56.4677568,28.658448 C56.0856442,29.4226733 56.0856442,30.3567264 56.0856442,31.2483226 C56.0856442,31.800263 56.0431872,32.4371174 56.0431872,33.0315149 C56.3828429,33.3711706 56.8074125,33.7108262 57.274439,34.008025 Z" id="Path" stroke="#54935B" stroke-width="0.724315738" fill="#FFFFFF" fill-rule="nonzero"></path>
                    <path d="M51.4153786,21.9927053 C51.967319,25.7713747 54.0477101,29.3802163 57.274439,31.4606074 C59.7793997,33.0739718 63.4731552,33.8806541 66.1479437,32.2672896 C69.7567853,30.0595277 70.4785536,24.7524077 70.3511827,20.9312813 C70.2238118,16.4308435 68.4830765,11.3784653 64.1100096,9.3405312 C61.0531085,7.93945152 56.213015,7.76962368 54.0052531,10.7416109 C51.7125773,13.798512 50.8634381,18.044208 51.4153786,21.9927053 Z" id="Path" stroke="#54935B" stroke-width="0.724315738" fill="#FFFFFF" fill-rule="nonzero"></path>
                    <path d="M66.4875994,9.25561728 C66.3177715,9.46790208 66.0630298,9.63772992 65.765831,9.7651008 C64.6194931,10.2321274 63.8977248,10.4019552 63.3457843,11.4633792 C62.8363008,12.3974323 62.4966451,13.4588563 61.9447046,14.3929094 C60.8408237,16.3459296 59.397287,18.044208 57.4018099,19.148089 C55.8733594,19.9972282 53.4533126,20.4217978 52.3069747,21.8228774 C51.3304646,23.0116723 50.5662394,24.9222355 50.0567558,26.3657722 C49.0802458,29.1254746 49.5897293,32.4371174 49.5897293,35.3241907 C49.5897293,35.4940186 49.5897293,35.6638464 49.5048154,35.7912173 C49.2500736,36.1733299 48.6556762,36.0035021 48.2735635,35.7487603 C45.641232,33.8806541 45.2591194,30.1444416 45.4714042,26.9177126 C45.8110598,22.247447 46.9573978,17.5347245 49.6746432,13.6711411 C52.3918886,9.85001472 56.7649555,7.0053984 61.4352211,7.0053984 C62.3692742,7.0053984 66.6574272,7.34505408 66.5300563,8.95841856 C66.5725133,9.04333248 66.5300563,9.17070336 66.4875994,9.25561728 Z" id="Path" stroke="#54935B" stroke-width="0.724315738" fill="#B9C4D2" fill-rule="nonzero"></path>
                    <path d="M67.6763942,26.2384013 C66.3177715,28.615991 62.0720755,29.5925011 60.3313402,27.0450835 C60.0765984,26.6629709 59.439744,27.0450835 59.6944858,27.4271962 C61.7324198,30.3991834 66.6149702,29.5075872 68.2707917,26.6205139 C68.5255334,26.1959443 67.931136,25.8562886 67.6763942,26.2384013 L67.6763942,26.2384013 Z" id="Path" stroke="none" fill="#54935B" fill-rule="nonzero"></path>
                    <path d="M65.0016058,16.0911878 C66.1054867,15.5817043 67.5490234,15.4543334 68.4406195,16.4308435 C68.7378182,16.7704992 69.2473018,16.2610157 68.950103,15.92136 C67.8462221,14.6901082 66.0205728,14.817479 64.6194931,15.4543334 C64.1949235,15.6666182 64.5770362,16.3034726 65.0016058,16.0911878 L65.0016058,16.0911878 Z" id="Path" stroke="none" fill="#54935B" fill-rule="nonzero"></path>
                    <path d="M56.5526707,21.22848 C56.7224986,21.9927053 57.359353,22.7144736 58.2084922,22.6720166 C59.1425453,22.6295597 59.5671149,21.7804205 59.6520288,20.9312813 C59.6944858,20.4642547 58.9727174,20.4642547 58.9302605,20.9312813 C58.8878035,21.3983078 58.6755187,21.9502483 58.1235782,21.9502483 C57.6565517,21.9077914 57.359353,21.4832218 57.274439,21.0586522 C57.1470682,20.5916256 56.4677568,20.7614534 56.5526707,21.22848 L56.5526707,21.22848 Z" id="Path" stroke="none" fill="#54935B" fill-rule="nonzero"></path>
                    <path d="M65.765831,19.4028307 C65.9356589,20.167056 66.5725133,20.8888243 67.4216525,20.8463674 C68.3557056,20.8039104 68.7802752,19.9547712 68.8651891,19.105632 C68.9076461,18.6386054 68.1858778,18.6386054 68.1434208,19.105632 C68.1009638,19.5726586 67.888679,20.124599 67.3367386,20.124599 C66.869712,20.0821421 66.5725133,19.6575725 66.4875994,19.2330029 C66.4026854,18.7659763 65.6809171,18.9782611 65.765831,19.4028307 L65.765831,19.4028307 Z" id="Path" stroke="none" fill="#54935B" fill-rule="nonzero"></path>
                    <path d="M66.5725133,8.9159616 C66.5725133,8.9159616 66.1904006,3.77866944 54.2599949,0.59439744" id="Path" stroke="#54935B" stroke-width="0.724315738" fill="#B9C4D2" fill-rule="nonzero"></path>
                    <path d="M49.7595571,5.5194048 C47.6367091,6.41100096 48.2311066,8.0668224 46.1507155,10.4019552 C45.8535168,10.7416109 45.4714042,11.0812666 45.598775,11.5058362 C45.683689,11.7605779 45.9384307,11.9304058 46.1507155,12.0153197 C47.5942522,12.694631 51.0332659,11.7605779 50.2690406,10.4444122 C48.2311066,8.15173632 45.8959738,10.7840678 44.579808,12.4823462 C43.2636422,14.1381677 42.7966157,16.3459296 42.5418739,18.4263206 C42.2871322,20.5491686 42.2871322,22.6720166 41.6927347,24.7524077 C40.7162246,28.3187923 38.0838931,31.800263 39.230231,35.2817338 C39.4000589,35.8336742 39.8670854,36.4705286 40.4614829,36.3431578 C40.7586816,36.3007008 40.9709664,36.088416 41.1407942,35.8336742 C42.0748474,34.6873363 42.5418739,33.1164288 42.3295891,31.5879782 C42.2446752,31.1209517 42.1173043,30.6114682 41.7776486,30.2718125 C40.7162246,29.2953024 39.0604032,30.5690112 38.3386349,31.800263 C35.6638464,36.2582438 34.6024224,42.9239866 36.8950982,47.806537" id="Path" stroke="#54935B" stroke-width="0.724315738" fill="none"></path>
                    <path d="M68.5255334,44.2401523 C68.5255334,44.2401523 68.99256,68.4830765 60.543625,70.053984 C52.9862861,71.4550637 52.5617165,64.8317779 54.132624,63.1759565 C60.0341414,56.8498694 70.3936397,65.1714336 64.704407,77.526409 C60.8408237,85.8904301 54.8543923,88.0132781 50.0142989,87.3764237" id="Path" stroke="#FFFFFF" stroke-width="0.724315738" fill="none"></path>
                </g>
            </g>
        </g>
    </g>
</svg>